# xmcd
#
# Track frame offsets:
#	150
#	11436
#	24878
#	37038
#	48630
#	62361
#	73798
#	84159
#	96137
#	108074
#	119170
#	131083
#	143208
#	155218
#	165525
#	177962
#	190707
#	202966
#	215950
#	228669
#	239993
#	253005
#	265165
#	277334
#	289559
#
# Disc length: 4003 seconds
# Revision: 1
# Processed by: cddbd v1.5.2PL0 Copyright (c) Steve Scherf et al.
# Submitted via: dBpowerAMP V12.0
#
DISCID=7a0fa119
DTITLE=Bob Wills - Texas, Hollywood And Chicago 1940-1947, CD04 - CD04
DYEAR=2011
DGENRE=Country
TTITLE0=New Texas Playboy Rag
TTITLE1=Deep Water
TTITLE2=Silver Lake Blues
TTITLE3=Little Cowboy Lullaby
TTITLE4=Closed For Repairs
TTITLE5=Dog House Blues
TTITLE6=Bubbles In My Beer
TTITLE7='Neath Hawaiian Palms
TTITLE8=Papa's Jumpin'
TTITLE9=Don't Be Ashamed Of Your Age
TTITLE10=Blackout Blues
TTITLE11=Spanish Fandango
TTITLE12=I Want To Be Near You
TTITLE13=Sally Goodin'
TTITLE14=She's Gone
TTITLE15=I Had A Little Mule
TTITLE16=Go Home With The Girls In The Mornin'
TTITLE17=Still Waters Run The Deepest
TTITLE18=Cotton Patch Blues
TTITLE19=Nothin' But The Best For My Baby
TTITLE20=Blues For Dixie
TTITLE21=Cross My Heart I Love You
TTITLE22=Keeper Of My Heart
TTITLE23=I'll Have Somebody Else
TTITLE24=Thorn In My Heart
EXTD=
EXTT0=
EXTT1=
EXTT2=
EXTT3=
EXTT4=
EXTT5=
EXTT6=
EXTT7=
EXTT8=
EXTT9=
EXTT10=
EXTT11=
EXTT12=
EXTT13=
EXTT14=
EXTT15=
EXTT16=
EXTT17=
EXTT18=
EXTT19=
EXTT20=
EXTT21=
EXTT22=
EXTT23=
EXTT24=
PLAYORDER=
